<svg aria-hidden="true" style="position: absolute; width: 0; height: 0; overflow: hidden;" version="1.1" xmlns="http://www.w3.org/2000/svg" xmlns:xlink="http://www.w3.org/1999/xlink">
<defs>
<symbol id="icon-css-3" viewBox="0 0 28 32">
<path fill="#1b73ba" style="fill: var(--color1, #1b73ba)" d="M2.301 28.69l-2.348-28.69 28.036 0.058-2.482 28.633-11.43 3.31z"></path>
<path fill="#1c88c7" style="fill: var(--color2, #1c88c7)" d="M14.077 29.229v-26.497l11.546 0.038-2.059 23.707z"></path>
<path fill="#fff" style="fill: var(--color3, #fff)" d="M22.755 6.119h-17.761l0.481 3.463h8.428l-8.293 3.56 0.481 3.348h12.219l-0.443 4.676-4.137 0.808-3.752-0.962-0.289-2.656h-3.444l0.462 5.523 7.389 2.059 7.081-2.251 0.904-10.795h-7.486l8.159-3.387z"></path>
</symbol>
<symbol id="icon-html-5-logo-svg-1" viewBox="0 0 32 32">
<path fill="#e44d26" style="fill: var(--color4, #e44d26)" d="M27.335 6.289l-2.065 23.137-9.284 2.574-9.258-2.57-2.063-23.141z"></path>
<path fill="#f16529" style="fill: var(--color5, #f16529)" d="M16 30.033l7.502-2.080 1.765-19.772h-9.267z"></path>
<path fill="#ebebeb" style="fill: var(--color6, #ebebeb)" d="M11.985 13.857h4.015v-2.838h-7.117l0.765 8.583h6.351v-2.838h-3.756zM12.625 21.021h-2.849l0.398 4.456 5.814 1.614 0.013-0.004v-2.953l-0.012 0.003-3.161-0.853z"></path>
<path fill="#000" style="fill: var(--color7, #000)" d="M6.774 0h1.442v1.425h1.319v-1.425h1.442v4.315h-1.442v-1.445h-1.319v1.445h-1.442v-4.315zM12.875 1.431h-1.27v-1.431h3.982v1.431h-1.27v2.884h-1.442v-2.884h-0zM16.22 0h1.504l0.925 1.516 0.924-1.516h1.505v4.315h-1.436v-2.139l-0.992 1.534h-0.025l-0.993-1.534v2.139h-1.411zM21.795 0h1.443v2.889h2.028v1.426h-3.471v-4.315z"></path>
<path fill="#fff" style="fill: var(--color3, #fff)" d="M15.99 19.602h3.495l-0.33 3.681-3.165 0.854v2.953l5.818-1.613 0.043-0.48 0.667-7.472 0.069-0.762h-6.597zM15.99 13.85v0.007h6.855l0.057-0.638 0.129-1.439 0.068-0.761h-7.11v2.831z"></path>
</symbol>
<symbol id="icon-javascript-1" viewBox="0 0 32 32">
<path fill="#f7df1e" style="fill: var(--color8, #f7df1e)" d="M0 0h32v32h-32z"></path>
<path fill="#000" style="fill: var(--color7, #000)" d="M21.496 25c0.645 1.052 1.483 1.826 2.966 1.826 1.246 0 2.042-0.623 2.042-1.483 0-1.031-0.818-1.396-2.189-1.996l-0.752-0.323c-2.17-0.924-3.611-2.083-3.611-4.531 0-2.255 1.718-3.972 4.404-3.972 1.912 0 3.286 0.665 4.277 2.408l-2.342 1.503c-0.516-0.924-1.072-1.289-1.935-1.289-0.881 0-1.439 0.559-1.439 1.289 0 0.902 0.559 1.267 1.849 1.826l0.752 0.322c2.555 1.096 3.997 2.213 3.997 4.724 0 2.707-2.127 4.19-4.983 4.19-2.793 0-4.597-1.331-5.48-3.075zM10.873 25.261c0.472 0.838 0.902 1.547 1.935 1.547 0.988 0 1.611-0.387 1.611-1.89v-10.225h3.007v10.265c0 3.114-1.826 4.531-4.49 4.531-2.408 0-3.802-1.246-4.511-2.747z"></path>
</symbol>
<symbol id="icon-nodejs-2" viewBox="0 0 32 32">
<path fill="#f2f2f2" style="fill: var(--color9, #f2f2f2)" d="M32 16c0 8.836-7.164 16-16 16-8.153 0-14.882-6.097-15.873-13.981-0.084-0.67-0.127-1.345-0.127-2.019 0-1.252 0.144-2.472 0.415-3.641 1.649-7.082 8.001-12.359 15.585-12.359 7.565 0 13.904 5.25 15.57 12.306 0.222 0.936 0.357 1.891 0.407 2.853 0.016 0.28 0.023 0.561 0.023 0.841z"></path>
<path fill="#3b8739" style="fill: var(--color10, #3b8739)" d="M15.2 17.285v-4.16l-3.603-2.079-3.603 2.079v4.16l3.603 2.080z"></path>
<path fill="#333" style="fill: var(--color11, #333)" d="M29.388 16.653l2.348 1.356-2.348 1.356-3.603-2.080v-4.159l3.603-2.080 2.183 1.261c0.222 0.936 0.357 1.891 0.407 2.853l-1.335 0.771v-1.448l-1.255-0.724-1.255 0.724v1.448z"></path>
<path fill="#66a060" style="fill: var(--color12, #66a060)" d="M30.088 15.609v-0.808l-0.699-0.404-0.7 0.404v0.808l0.7 0.404z"></path>
<path fill="#333" style="fill: var(--color11, #333)" d="M6.293 13.126v5.485l-2.403-1.37v-2.813l-1.199-0.693-1.199 0.693v2.812l-1.365 0.778c-0.084-0.669-0.127-1.343-0.127-2.018 0-1.252 0.144-2.471 0.415-3.641l2.275-1.313z"></path>
<path fill="#6da75d" style="fill: var(--color13, #6da75d)" d="M11.596 11.044l3.603 6.239-3.603 2.080-3.601-6.239z"></path>
<path fill="#55a344" style="fill: var(--color14, #55a344)" d="M7.995 17.285l1.236-2.018-1.236-2.143z"></path>
<path fill="#639d57" style="fill: var(--color15, #639d57)" d="M13.998 15.205l1.201-2.080-3.601-2.079z"></path>
<path fill="#333" style="fill: var(--color11, #333)" d="M21.66 6.224v5.519l-1.208-0.697-3.603 2.080v4.16l3.603 2.080 3.603-2.080v-9.781zM21.653 15.898l-1.201 0.693-1.201-0.693v-1.386l1.201-0.693 1.201 0.693z"></path>
<path fill="#66a060" style="fill: var(--color12, #66a060)" d="M17.635 22.42s-0.071-0.608-0.721-0.608-1.096 0.085-1.096 0.445 1.265 0.36 1.746 0.502c0.481 0.141 0.905 0.509 0.693 1.16s-0.862 0.721-1.867 0.721-1.231-0.834-1.231-1.16h0.566s-0.071 0.509 0.593 0.593 1.3 0.132 1.386-0.381c0.114-0.679-2.15-0.34-2.348-1.005-0.168-0.562-0.071-1.3 1.060-1.414s1.753 0.387 1.753 1.131z"></path>
<path fill="#66a060" style="fill: var(--color12, #66a060)" d="M12.17 25.071l1.251 0.721c0.629 0.363 1.414-0.091 1.414-0.817v-3.594h-0.509v3.452c0 0.396-0.428 0.645-0.773 0.445l-0.872-0.504v-3.684l3.19-1.841 3.19 1.841v3.684l-3.19 1.841-0.919-0.531-0.6 0.242 1.52 0.876 3.699-2.136v-4.271l-3.699-2.136-3.699 2.136z"></path>
</symbol>
<symbol id="icon-react-2" viewBox="0 0 28 32">
<path fill="#61dafb" style="fill: var(--color16, #61dafb)" d="M28.083 16.003c0-1.86-2.33-3.623-5.902-4.717 0.824-3.641 0.458-6.537-1.156-7.464-0.372-0.218-0.807-0.321-1.282-0.321v1.276c0.263 0 0.475 0.052 0.653 0.149 0.779 0.447 1.116 2.147 0.853 4.333-0.063 0.538-0.166 1.105-0.292 1.683-1.122-0.275-2.347-0.487-3.635-0.624-0.773-1.059-1.574-2.021-2.381-2.862 1.866-1.734 3.618-2.685 4.808-2.685v-1.276c-1.574 0-3.635 1.122-5.719 3.068-2.084-1.935-4.144-3.045-5.719-3.045v1.276c1.185 0 2.942 0.944 4.808 2.667-0.801 0.841-1.603 1.797-2.364 2.856-1.294 0.137-2.519 0.349-3.641 0.63-0.132-0.572-0.229-1.128-0.298-1.66-0.269-2.187 0.063-3.887 0.836-4.339 0.172-0.103 0.395-0.149 0.658-0.149v-1.276c-0.481 0-0.916 0.103-1.294 0.321-1.609 0.927-1.969 3.818-1.139 7.447-3.561 1.099-5.879 2.856-5.879 4.711 0 1.86 2.33 3.623 5.902 4.717-0.824 3.641-0.458 6.537 1.156 7.464 0.372 0.218 0.807 0.321 1.288 0.321 1.574 0 3.635-1.122 5.719-3.068 2.084 1.935 4.144 3.045 5.719 3.045 0.481 0 0.916-0.103 1.294-0.321 1.609-0.927 1.969-3.818 1.139-7.447 3.549-1.093 5.867-2.856 5.867-4.711zM20.63 12.185c-0.212 0.738-0.475 1.5-0.773 2.261-0.235-0.458-0.481-0.916-0.75-1.374-0.263-0.458-0.544-0.904-0.824-1.339 0.813 0.12 1.597 0.269 2.347 0.452zM18.009 18.281c-0.447 0.773-0.904 1.505-1.38 2.187-0.853 0.074-1.717 0.114-2.587 0.114-0.864 0-1.729-0.040-2.576-0.109-0.475-0.681-0.939-1.408-1.385-2.175-0.435-0.75-0.83-1.511-1.191-2.278 0.355-0.767 0.756-1.534 1.185-2.284 0.447-0.773 0.904-1.505 1.38-2.187 0.853-0.074 1.717-0.114 2.587-0.114 0.864 0 1.729 0.040 2.576 0.109 0.475 0.681 0.939 1.408 1.385 2.175 0.435 0.75 0.83 1.511 1.191 2.278-0.361 0.767-0.756 1.534-1.185 2.284zM19.857 17.537c0.309 0.767 0.572 1.534 0.79 2.278-0.75 0.183-1.54 0.338-2.358 0.458 0.28-0.441 0.561-0.893 0.824-1.357 0.263-0.458 0.509-0.922 0.744-1.38zM14.053 23.645c-0.532-0.55-1.065-1.162-1.591-1.832 0.515 0.023 1.042 0.040 1.574 0.040 0.538 0 1.070-0.011 1.591-0.040-0.515 0.67-1.048 1.282-1.574 1.832zM9.794 20.273c-0.813-0.12-1.597-0.269-2.347-0.452 0.212-0.738 0.475-1.5 0.773-2.261 0.235 0.458 0.481 0.916 0.75 1.374s0.544 0.904 0.824 1.339zM14.024 8.361c0.532 0.55 1.065 1.162 1.591 1.832-0.515-0.023-1.042-0.040-1.574-0.040-0.538 0-1.070 0.011-1.591 0.040 0.515-0.67 1.048-1.282 1.574-1.832zM9.788 11.733c-0.28 0.441-0.561 0.893-0.824 1.357-0.263 0.458-0.509 0.916-0.744 1.374-0.309-0.767-0.572-1.534-0.79-2.278 0.75-0.177 1.54-0.332 2.358-0.452zM4.608 18.899c-2.026-0.864-3.337-1.998-3.337-2.896s1.311-2.038 3.337-2.896c0.492-0.212 1.030-0.401 1.586-0.578 0.326 1.122 0.756 2.29 1.288 3.486-0.527 1.191-0.95 2.353-1.271 3.469-0.567-0.177-1.105-0.372-1.603-0.584zM7.688 27.079c-0.779-0.447-1.116-2.147-0.853-4.333 0.063-0.538 0.166-1.105 0.292-1.683 1.122 0.275 2.347 0.487 3.635 0.624 0.773 1.059 1.574 2.021 2.381 2.862-1.866 1.734-3.618 2.685-4.808 2.685-0.258-0.006-0.475-0.057-0.647-0.155zM21.266 22.717c0.269 2.187-0.063 3.887-0.836 4.339-0.172 0.103-0.395 0.149-0.658 0.149-1.185 0-2.942-0.945-4.808-2.668 0.801-0.841 1.603-1.797 2.364-2.856 1.294-0.137 2.519-0.349 3.641-0.63 0.132 0.578 0.235 1.133 0.298 1.666zM23.469 18.899c-0.492 0.212-1.030 0.401-1.586 0.578-0.326-1.122-0.756-2.29-1.288-3.486 0.527-1.191 0.95-2.353 1.271-3.469 0.567 0.177 1.105 0.372 1.609 0.584 2.026 0.864 3.337 1.998 3.337 2.896-0.006 0.899-1.317 2.038-3.343 2.896z"></path>
<path fill="#61dafb" style="fill: var(--color16, #61dafb)" d="M16.652 16.003c0 1.445-1.171 2.616-2.616 2.616s-2.616-1.171-2.616-2.616c0-1.445 1.171-2.616 2.616-2.616s2.616 1.171 2.616 2.616z"></path>
</symbol>
</defs>
</svg>
