<svg aria-hidden="true" style="position: absolute; width: 0; height: 0; overflow: hidden;" version="1.1" xmlns="http://www.w3.org/2000/svg" xmlns:xlink="http://www.w3.org/1999/xlink">
<defs>
<symbol id="icon-Moon-gray" viewBox="0 0 32 32">
<path fill="none" stroke="#9a9a9a" style="stroke: var(--color1, #9a9a9a)" stroke-linejoin="round" stroke-linecap="round" stroke-miterlimit="4" stroke-width="2.9991" d="M27.784 19.628c-1.335 0.572-2.888 0.904-4.518 0.904-0.005 0-0.011 0-0.016 0h0.001c-6.507 0-11.782-5.275-11.782-11.782 0-1.607 0.321-3.138 0.904-4.534-4.293 1.825-7.248 6.006-7.248 10.877 0 0 0 0.001 0 0.001v-0c0 6.507 5.275 11.782 11.782 11.782 0 0 0.001 0 0.001 0 4.871 0 9.052-2.955 10.848-7.171l0.029-0.077z"></path>
</symbol>
<symbol id="icon-Moon-black" viewBox="0 0 32 32">
<path stroke-linejoin="round" stroke-linecap="round" stroke-miterlimit="4" stroke-width="2.9991" d="M27.784 19.628c-1.335 0.572-2.888 0.904-4.518 0.904-0.005 0-0.011 0-0.016 0h0.001c-6.507 0-11.782-5.275-11.782-11.782 0-1.607 0.321-3.138 0.904-4.534-4.293 1.825-7.248 6.006-7.248 10.877 0 0 0 0.001 0 0.001v-0c0 6.507 5.275 11.782 11.782 11.782 0 0 0.001 0 0.001 0 4.871 0 9.052-2.955 10.848-7.171l0.029-0.077z"></path>
</symbol>
<symbol id="icon-Sun-gray" viewBox="0 0 32 32">
<path fill="#7b7b7a" style="fill: var(--color2, #7b7b7a)" d="M15 5v-3c0-0.552 0.448-1 1-1s1 0.448 1 1v0 3c0 0.552-0.448 1-1 1s-1-0.448-1-1v0zM24 16c0 4.418-3.582 8-8 8s-8-3.582-8-8c0-4.418 3.582-8 8-8v0c4.416 0.005 7.995 3.584 8 8v0zM22 16c0-3.314-2.686-6-6-6s-6 2.686-6 6c0 3.314 2.686 6 6 6v0c3.312-0.004 5.996-2.688 6-6v-0zM7.293 8.707c0.181 0.181 0.431 0.293 0.707 0.293 0.553 0 1.001-0.448 1.001-1.001 0-0.276-0.112-0.526-0.293-0.708v0l-2-2c-0.181-0.181-0.431-0.293-0.707-0.293-0.553 0-1.001 0.448-1.001 1.001 0 0.276 0.112 0.526 0.293 0.708v0zM7.293 23.293l-2 2c-0.181 0.181-0.293 0.431-0.293 0.707 0 0.553 0.448 1.001 1.001 1.001 0.276 0 0.526-0.112 0.708-0.293v0l2-2c0.181-0.181 0.293-0.431 0.293-0.707 0-0.553-0.448-1.001-1.001-1.001-0.276 0-0.526 0.112-0.707 0.293v0zM24 9c0 0 0 0 0.001 0 0.276 0 0.526-0.112 0.707-0.293v0l2-2c0.181-0.181 0.293-0.431 0.293-0.707 0-0.553-0.448-1.001-1.001-1.001-0.276 0-0.526 0.112-0.707 0.293v0l-2 2c-0.181 0.181-0.293 0.431-0.293 0.707 0 0.552 0.448 1 1 1 0 0 0.001 0 0.001 0h-0zM24.707 23.293c-0.181-0.181-0.431-0.293-0.707-0.293-0.553 0-1.001 0.448-1.001 1.001 0 0.276 0.112 0.526 0.293 0.707l2 2c0.181 0.181 0.431 0.293 0.707 0.293 0.553 0 1.001-0.448 1.001-1.001 0-0.276-0.112-0.526-0.293-0.707v0zM6 16c0-0.552-0.448-1-1-1v0h-3c-0.552 0-1 0.448-1 1s0.448 1 1 1v0h3c0.552 0 1-0.448 1-1v0zM16 26c-0.552 0-1 0.448-1 1v0 3c0 0.552 0.448 1 1 1s1-0.448 1-1v0-3c0-0.552-0.448-1-1-1v0zM30 15h-3c-0.552 0-1 0.448-1 1s0.448 1 1 1v0h3c0.552 0 1-0.448 1-1s-0.448-1-1-1v0z"></path>
</symbol>
<symbol id="icon-Sun-black" viewBox="0 0 32 32">
<path d="M15 5v-3c0-0.552 0.448-1 1-1s1 0.448 1 1v0 3c0 0.552-0.448 1-1 1s-1-0.448-1-1v0zM24 16c0 4.418-3.582 8-8 8s-8-3.582-8-8c0-4.418 3.582-8 8-8v0c4.416 0.005 7.995 3.584 8 8v0zM22 16c0-3.314-2.686-6-6-6s-6 2.686-6 6c0 3.314 2.686 6 6 6v0c3.312-0.004 5.996-2.688 6-6v-0zM7.293 8.707c0.181 0.181 0.431 0.293 0.707 0.293 0.553 0 1.001-0.448 1.001-1.001 0-0.276-0.112-0.526-0.293-0.708v0l-2-2c-0.181-0.181-0.431-0.293-0.707-0.293-0.553 0-1.001 0.448-1.001 1.001 0 0.276 0.112 0.526 0.293 0.708v0zM7.293 23.293l-2 2c-0.181 0.181-0.293 0.431-0.293 0.707 0 0.553 0.448 1.001 1.001 1.001 0.276 0 0.526-0.112 0.708-0.293v0l2-2c0.181-0.181 0.293-0.431 0.293-0.707 0-0.553-0.448-1.001-1.001-1.001-0.276 0-0.526 0.112-0.707 0.293v0zM24 9c0 0 0 0 0.001 0 0.276 0 0.526-0.112 0.707-0.293v0l2-2c0.181-0.181 0.293-0.431 0.293-0.707 0-0.553-0.448-1.001-1.001-1.001-0.276 0-0.526 0.112-0.707 0.293v0l-2 2c-0.181 0.181-0.293 0.431-0.293 0.707 0 0.552 0.448 1 1 1 0 0 0.001 0 0.001 0h-0zM24.707 23.293c-0.181-0.181-0.431-0.293-0.707-0.293-0.553 0-1.001 0.448-1.001 1.001 0 0.276 0.112 0.526 0.293 0.707l2 2c0.181 0.181 0.431 0.293 0.707 0.293 0.553 0 1.001-0.448 1.001-1.001 0-0.276-0.112-0.526-0.293-0.707v0zM6 16c0-0.552-0.448-1-1-1v0h-3c-0.552 0-1 0.448-1 1s0.448 1 1 1v0h3c0.552 0 1-0.448 1-1v0zM16 26c-0.552 0-1 0.448-1 1v0 3c0 0.552 0.448 1 1 1s1-0.448 1-1v0-3c0-0.552-0.448-1-1-1v0zM30 15h-3c-0.552 0-1 0.448-1 1s0.448 1 1 1v0h3c0.552 0 1-0.448 1-1s-0.448-1-1-1v0z"></path>
</symbol>
</defs>
</svg>
